<svg width="100%" height="100%" viewBox="0 0 2550 625" version="1.1" xmlns="http://www.w3.org/2000/svg"
     xml:space="preserve"
     style="fill-rule:evenodd;clip-rule:evenodd;stroke-linejoin:round;stroke-miterlimit:2;">
    <g transform="matrix(1,0,0,1,-0.00023037,0.00258436)">
        <g transform="matrix(1,0,0,1,-65.3064,-1710.29)">
            <g transform="matrix(1,0,0,1,-284.19,-103.726)">
                <g transform="matrix(266.667,0,0,266.667,1094.74,2087.7)">
                    <path d="M0.626,-0.09C0.6,-0.058 0.562,-0.034 0.514,-0.016C0.466,0.001 0.413,0.01 0.354,0.01C0.292,0.01 0.239,-0.004 0.192,-0.031C0.146,-0.057 0.11,-0.096 0.085,-0.147C0.059,-0.199 0.047,-0.259 0.046,-0.328L0.046,-0.376C0.046,-0.447 0.058,-0.508 0.082,-0.56C0.106,-0.612 0.14,-0.652 0.185,-0.679C0.23,-0.707 0.283,-0.721 0.344,-0.721C0.428,-0.721 0.494,-0.701 0.542,-0.66C0.589,-0.62 0.617,-0.562 0.626,-0.485L0.483,-0.485C0.477,-0.526 0.462,-0.555 0.44,-0.574C0.418,-0.593 0.387,-0.603 0.348,-0.603C0.298,-0.603 0.26,-0.584 0.234,-0.546C0.208,-0.509 0.195,-0.453 0.195,-0.379L0.195,-0.334C0.195,-0.259 0.209,-0.203 0.237,-0.165C0.266,-0.127 0.307,-0.108 0.362,-0.108C0.417,-0.108 0.456,-0.12 0.479,-0.143L0.479,-0.266L0.346,-0.266L0.346,-0.374L0.626,-0.374L0.626,-0.09Z" style="fill:white;fill-rule:nonzero;"/>
                </g>
                <g transform="matrix(266.667,0,0,266.667,1292.38,2087.7)">
                    <path d="M0.491,-0.308L0.21,-0.308L0.21,-0.118L0.54,-0.118L0.54,-0L0.063,-0L0.063,-0.711L0.539,-0.711L0.539,-0.592L0.21,-0.592L0.21,-0.423L0.491,-0.423L0.491,-0.308Z" style="fill:white;fill-rule:nonzero;"/>
                </g>
                <g transform="matrix(266.667,0,0,266.667,1458.38,2087.7)">
                    <path d="M0.647,-0.339C0.647,-0.269 0.635,-0.208 0.61,-0.155C0.586,-0.103 0.55,-0.062 0.504,-0.033C0.458,-0.005 0.405,0.01 0.346,0.01C0.287,0.01 0.234,-0.004 0.188,-0.033C0.142,-0.061 0.106,-0.101 0.081,-0.154C0.055,-0.207 0.042,-0.267 0.042,-0.335L0.042,-0.371C0.042,-0.441 0.055,-0.502 0.08,-0.555C0.105,-0.609 0.141,-0.649 0.187,-0.678C0.233,-0.706 0.285,-0.721 0.345,-0.721C0.404,-0.721 0.457,-0.706 0.503,-0.678C0.549,-0.649 0.584,-0.609 0.61,-0.555C0.635,-0.502 0.647,-0.441 0.647,-0.371L0.647,-0.339ZM0.499,-0.372C0.499,-0.446 0.486,-0.503 0.459,-0.542C0.432,-0.58 0.394,-0.6 0.345,-0.6C0.296,-0.6 0.258,-0.58 0.231,-0.542C0.204,-0.504 0.191,-0.448 0.19,-0.374L0.19,-0.339C0.19,-0.267 0.204,-0.21 0.23,-0.17C0.257,-0.13 0.296,-0.11 0.346,-0.11C0.395,-0.11 0.433,-0.13 0.459,-0.168C0.485,-0.207 0.499,-0.263 0.499,-0.337L0.499,-0.372Z" style="fill:white;fill-rule:nonzero;"/>
                </g>
                <g transform="matrix(266.667,0,0,266.667,1658.5,2087.7)">
                    <path d="M0.255,-0.711L0.438,-0.195L0.619,-0.711L0.812,-0.711L0.812,-0L0.665,-0L0.665,-0.194L0.679,-0.53L0.487,-0L0.387,-0L0.195,-0.529L0.21,-0.194L0.21,-0L0.063,-0L0.063,-0.711L0.255,-0.711Z" style="fill:white;fill-rule:nonzero;"/>
                </g>
                <g transform="matrix(266.667,0,0,266.667,1908.09,2087.7)">
                    <path d="M0.491,-0.308L0.21,-0.308L0.21,-0.118L0.54,-0.118L0.54,-0L0.063,-0L0.063,-0.711L0.539,-0.711L0.539,-0.592L0.21,-0.592L0.21,-0.423L0.491,-0.423L0.491,-0.308Z" style="fill:white;fill-rule:nonzero;"/>
                </g>
                <g transform="matrix(266.667,0,0,266.667,2076.7,2087.7)">
                    <path d="M0.599,-0.592L0.381,-0.592L0.381,-0L0.234,-0L0.234,-0.592L0.02,-0.592L0.02,-0.711L0.599,-0.711L0.599,-0.592Z" style="fill:white;fill-rule:nonzero;"/>
                </g>
                <g transform="matrix(266.667,0,0,266.667,2257.67,2087.7)">
                    <path d="M0.327,-0.26L0.21,-0.26L0.21,-0L0.063,-0L0.063,-0.711L0.328,-0.711C0.412,-0.711 0.476,-0.692 0.522,-0.655C0.568,-0.617 0.59,-0.564 0.59,-0.496C0.59,-0.448 0.58,-0.407 0.559,-0.375C0.538,-0.342 0.506,-0.317 0.463,-0.297L0.617,-0.007L0.617,-0L0.46,-0L0.327,-0.26ZM0.21,-0.379L0.328,-0.379C0.365,-0.379 0.393,-0.388 0.414,-0.407C0.434,-0.426 0.444,-0.451 0.444,-0.484C0.444,-0.518 0.434,-0.544 0.415,-0.563C0.396,-0.583 0.367,-0.592 0.328,-0.592L0.21,-0.592L0.21,-0.379Z" style="fill:white;fill-rule:nonzero;"/>
                </g>
                <g transform="matrix(266.667,0,0,266.667,2443.85,2087.7)">
                    <rect x="0.073" y="-0.711" width="0.146" height="0.711" style="fill:white;"/>
                </g>
                <g transform="matrix(266.667,0,0,266.667,2537.59,2087.7)">
                    <path d="M0.622,-0.237C0.616,-0.16 0.588,-0.1 0.537,-0.056C0.486,-0.012 0.419,0.01 0.335,0.01C0.244,0.01 0.173,-0.021 0.12,-0.082C0.068,-0.144 0.042,-0.228 0.042,-0.335L0.042,-0.378C0.042,-0.447 0.054,-0.507 0.078,-0.559C0.102,-0.611 0.137,-0.651 0.181,-0.679C0.226,-0.707 0.278,-0.721 0.337,-0.721C0.419,-0.721 0.486,-0.699 0.536,-0.655C0.586,-0.611 0.615,-0.549 0.623,-0.47L0.476,-0.47C0.472,-0.516 0.46,-0.549 0.438,-0.57C0.416,-0.59 0.382,-0.601 0.337,-0.601C0.289,-0.601 0.252,-0.583 0.228,-0.548C0.204,-0.513 0.191,-0.459 0.19,-0.385L0.19,-0.332C0.19,-0.255 0.202,-0.199 0.225,-0.163C0.249,-0.128 0.285,-0.11 0.335,-0.11C0.381,-0.11 0.414,-0.12 0.437,-0.141C0.459,-0.162 0.472,-0.194 0.475,-0.237L0.622,-0.237Z" style="fill:white;fill-rule:nonzero;"/>
                </g>
                <g transform="matrix(266.667,0,0,266.667,1094.74,2364.36)">
                    <path d="M0.622,-0.237C0.616,-0.16 0.588,-0.1 0.537,-0.056C0.486,-0.012 0.419,0.01 0.335,0.01C0.244,0.01 0.173,-0.021 0.12,-0.082C0.068,-0.144 0.042,-0.228 0.042,-0.335L0.042,-0.378C0.042,-0.447 0.054,-0.507 0.078,-0.559C0.102,-0.611 0.137,-0.651 0.181,-0.679C0.226,-0.707 0.278,-0.721 0.337,-0.721C0.419,-0.721 0.486,-0.699 0.536,-0.655C0.586,-0.611 0.615,-0.549 0.623,-0.47L0.476,-0.47C0.472,-0.516 0.46,-0.549 0.438,-0.57C0.416,-0.59 0.382,-0.601 0.337,-0.601C0.289,-0.601 0.252,-0.583 0.228,-0.548C0.204,-0.513 0.191,-0.459 0.19,-0.385L0.19,-0.332C0.19,-0.255 0.202,-0.199 0.225,-0.163C0.249,-0.128 0.285,-0.11 0.335,-0.11C0.381,-0.11 0.414,-0.12 0.437,-0.141C0.459,-0.162 0.472,-0.194 0.475,-0.237L0.622,-0.237Z" style="fill:white;fill-rule:nonzero;"/>
                </g>
                <g transform="matrix(266.667,0,0,266.667,1285.22,2364.36)">
                    <path d="M0.465,-0.146L0.208,-0.146L0.159,-0L0.003,-0L0.268,-0.711L0.404,-0.711L0.67,-0L0.514,-0L0.465,-0.146ZM0.248,-0.265L0.425,-0.265L0.336,-0.531L0.248,-0.265Z" style="fill:white;fill-rule:nonzero;"/>
                </g>
                <g transform="matrix(266.667,0,0,266.667,1480.65,2364.36)">
                    <path d="M0.21,-0.118L0.521,-0.118L0.521,-0L0.063,-0L0.063,-0.711L0.21,-0.711L0.21,-0.118Z" style="fill:white;fill-rule:nonzero;"/>
                </g>
                <g transform="matrix(266.667,0,0,266.667,1632.72,2364.36)">
                    <path d="M0.622,-0.237C0.616,-0.16 0.588,-0.1 0.537,-0.056C0.486,-0.012 0.419,0.01 0.335,0.01C0.244,0.01 0.173,-0.021 0.12,-0.082C0.068,-0.144 0.042,-0.228 0.042,-0.335L0.042,-0.378C0.042,-0.447 0.054,-0.507 0.078,-0.559C0.102,-0.611 0.137,-0.651 0.181,-0.679C0.226,-0.707 0.278,-0.721 0.337,-0.721C0.419,-0.721 0.486,-0.699 0.536,-0.655C0.586,-0.611 0.615,-0.549 0.623,-0.47L0.476,-0.47C0.472,-0.516 0.46,-0.549 0.438,-0.57C0.416,-0.59 0.382,-0.601 0.337,-0.601C0.289,-0.601 0.252,-0.583 0.228,-0.548C0.204,-0.513 0.191,-0.459 0.19,-0.385L0.19,-0.332C0.19,-0.255 0.202,-0.199 0.225,-0.163C0.249,-0.128 0.285,-0.11 0.335,-0.11C0.381,-0.11 0.414,-0.12 0.437,-0.141C0.459,-0.162 0.472,-0.194 0.475,-0.237L0.622,-0.237Z" style="fill:white;fill-rule:nonzero;"/>
                </g>
                <g transform="matrix(266.667,0,0,266.667,1823.2,2364.36)">
                    <path d="M0.602,-0.711L0.602,-0.243C0.602,-0.165 0.577,-0.103 0.529,-0.058C0.48,-0.013 0.413,0.01 0.329,0.01C0.246,0.01 0.18,-0.012 0.131,-0.056C0.083,-0.1 0.058,-0.16 0.057,-0.237L0.057,-0.711L0.203,-0.711L0.203,-0.242C0.203,-0.195 0.214,-0.161 0.237,-0.14C0.259,-0.119 0.29,-0.108 0.329,-0.108C0.411,-0.108 0.453,-0.151 0.455,-0.238L0.455,-0.711L0.602,-0.711Z" style="fill:white;fill-rule:nonzero;"/>
                </g>
                <g transform="matrix(266.667,0,0,266.667,2014.72,2364.36)">
                    <path d="M0.21,-0.118L0.521,-0.118L0.521,-0L0.063,-0L0.063,-0.711L0.21,-0.711L0.21,-0.118Z" style="fill:white;fill-rule:nonzero;"/>
                </g>
                <g transform="matrix(266.667,0,0,266.667,2177.59,2364.36)">
                    <path d="M0.465,-0.146L0.208,-0.146L0.159,-0L0.003,-0L0.268,-0.711L0.404,-0.711L0.67,-0L0.514,-0L0.465,-0.146ZM0.248,-0.265L0.425,-0.265L0.336,-0.531L0.248,-0.265Z" style="fill:white;fill-rule:nonzero;"/>
                </g>
                <g transform="matrix(266.667,0,0,266.667,2357.39,2364.36)">
                    <path d="M0.599,-0.592L0.381,-0.592L0.381,-0L0.234,-0L0.234,-0.592L0.02,-0.592L0.02,-0.711L0.599,-0.711L0.599,-0.592Z" style="fill:white;fill-rule:nonzero;"/>
                </g>
                <g transform="matrix(266.667,0,0,266.667,2534.72,2364.36)">
                    <path d="M0.647,-0.339C0.647,-0.269 0.635,-0.208 0.61,-0.155C0.586,-0.103 0.55,-0.062 0.504,-0.033C0.458,-0.005 0.405,0.01 0.346,0.01C0.287,0.01 0.234,-0.004 0.188,-0.033C0.142,-0.061 0.106,-0.101 0.081,-0.154C0.055,-0.207 0.042,-0.267 0.042,-0.335L0.042,-0.371C0.042,-0.441 0.055,-0.502 0.08,-0.555C0.105,-0.609 0.141,-0.649 0.187,-0.678C0.233,-0.706 0.285,-0.721 0.345,-0.721C0.404,-0.721 0.457,-0.706 0.503,-0.678C0.549,-0.649 0.584,-0.609 0.61,-0.555C0.635,-0.502 0.647,-0.441 0.647,-0.371L0.647,-0.339ZM0.499,-0.372C0.499,-0.446 0.486,-0.503 0.459,-0.542C0.432,-0.58 0.394,-0.6 0.345,-0.6C0.296,-0.6 0.258,-0.58 0.231,-0.542C0.204,-0.504 0.191,-0.448 0.19,-0.374L0.19,-0.339C0.19,-0.267 0.204,-0.21 0.23,-0.17C0.257,-0.13 0.296,-0.11 0.346,-0.11C0.395,-0.11 0.433,-0.13 0.459,-0.168C0.485,-0.207 0.499,-0.263 0.499,-0.337L0.499,-0.372Z" style="fill:white;fill-rule:nonzero;"/>
                </g>
                <g transform="matrix(266.667,0,0,266.667,2734.84,2364.36)">
                    <path d="M0.327,-0.26L0.21,-0.26L0.21,-0L0.063,-0L0.063,-0.711L0.328,-0.711C0.412,-0.711 0.476,-0.692 0.522,-0.655C0.568,-0.617 0.59,-0.564 0.59,-0.496C0.59,-0.448 0.58,-0.407 0.559,-0.375C0.538,-0.342 0.506,-0.317 0.463,-0.297L0.617,-0.007L0.617,-0L0.46,-0L0.327,-0.26ZM0.21,-0.379L0.328,-0.379C0.365,-0.379 0.393,-0.388 0.414,-0.407C0.434,-0.426 0.444,-0.451 0.444,-0.484C0.444,-0.518 0.434,-0.544 0.415,-0.563C0.396,-0.583 0.367,-0.592 0.328,-0.592L0.21,-0.592L0.21,-0.379Z" style="fill:white;fill-rule:nonzero;"/>
                </g>
            </g>
        </g>
        <g transform="matrix(1,0,0,1,-65.3064,-1710.29)">
            <g transform="matrix(1,0,0,1,-385.208,0)">
                <g transform="matrix(4.16667,0,0,4.16667,-2212.45,357.403)">
                    <path d="M678.869,324.692L678.869,410.359L764.535,434.703L764.535,349.036L678.869,324.692ZM683.737,331.138L759.667,352.714L759.667,428.258L683.737,406.681L683.737,331.138Z" style="fill:white;fill-rule:nonzero;"/>
                </g>
                <g transform="matrix(4.16667,0,0,4.16667,-2212.45,357.403)">
                    <path d="M724.778,474.46L639.111,450.117L639.111,364.45L724.778,388.793L724.778,474.46Z" style="fill:white;fill-rule:nonzero;"/>
                </g>
                <g transform="matrix(4.16667,0,0,4.16667,-2212.45,357.403)">
                    <path d="M678.869,324.692L639.111,364.45L724.778,388.793L764.535,349.036L678.869,324.692ZM680.289,330.158L755.232,351.454L723.357,383.329L648.415,362.032L680.289,330.158Z" style="fill:white;fill-rule:nonzero;"/>
                </g>
                <g transform="matrix(4.16667,0,0,4.16667,-2212.45,357.403)">
                    <path d="M729.599,469.639L764.536,434.703L729.599,424.775L729.599,469.639Z" style="fill:white;fill-rule:nonzero;"/>
                </g>
            </g>
        </g>
    </g>
</svg>
